<?xml version="1.0" standalone="no"?>
<!DOCTYPE svg PUBLIC "-//W3C//DTD SVG 20010904//EN"
 "http://www.w3.org/TR/2001/REC-SVG-20010904/DTD/svg10.dtd">
<svg version="1.0" xmlns="http://www.w3.org/2000/svg"
 width="32.000000pt" height="32.000000pt" viewBox="0 0 32.000000 32.000000"
 preserveAspectRatio="xMidYMid meet">

<g transform="translate(0.000000,32.000000) scale(0.100000,-0.100000)"
fill="#000000" stroke="none">
<path d="M142 253 c-5 -10 -13 -49 -17 -87 -5 -50 -10 -65 -18 -57 -6 6 -10
27 -9 46 3 42 -2 43 -51 10 -37 -26 -54 -62 -43 -90 6 -16 41 -20 50 -6 4 5
18 4 34 -4 34 -18 100 -5 123 24 l17 20 5 -20 c5 -17 12 -20 44 -17 31 2 39 7
41 26 3 20 0 22 -22 16 -29 -7 -34 7 -11 26 8 7 15 18 15 26 0 25 -20 25 -45
0 -23 -23 -25 -23 -25 -6 0 25 -17 26 -43 3 -19 -18 -19 -17 -16 41 4 61 -10
85 -29 49z"/>
</g>
</svg>
